<svg width="19" height="19" viewBox="0 0 19 19" fill="none" xmlns="http://www.w3.org/2000/svg">
<g clip-path="url(#clip0_32_3046)">
<path fill-rule="evenodd" clip-rule="evenodd" d="M6.53125 7.125C6.53125 6.33764 6.84403 5.58253 7.40078 5.02578C7.95753 4.46903 8.71264 4.15625 9.5 4.15625C10.2874 4.15625 11.0425 4.46903 11.5992 5.02578C12.156 5.58253 12.4688 6.33764 12.4688 7.125C12.4688 7.91236 12.156 8.66747 11.5992 9.22422C11.0425 9.78097 10.2874 10.0938 9.5 10.0938C8.71264 10.0938 7.95753 9.78097 7.40078 9.22422C6.84403 8.66747 6.53125 7.91236 6.53125 7.125ZM9.5 5.34375C9.02758 5.34375 8.57452 5.53142 8.24047 5.86547C7.90642 6.19952 7.71875 6.65258 7.71875 7.125C7.71875 7.59742 7.90642 8.05048 8.24047 8.38453C8.57452 8.71858 9.02758 8.90625 9.5 8.90625C9.97242 8.90625 10.4255 8.71858 10.7595 8.38453C11.0936 8.05048 11.2812 7.59742 11.2812 7.125C11.2812 6.65258 11.0936 6.19952 10.7595 5.86547C10.4255 5.53142 9.97242 5.34375 9.5 5.34375Z" fill="#676862"/>
<path fill-rule="evenodd" clip-rule="evenodd" d="M0.989746 9.49998C0.989746 4.79985 4.80004 0.989563 9.50016 0.989563C14.2003 0.989563 18.0106 4.79985 18.0106 9.49998C18.0106 14.2001 14.2003 18.0104 9.50016 18.0104C4.80004 18.0104 0.989746 14.2001 0.989746 9.49998ZM9.50016 2.17706C8.05354 2.17713 6.63935 2.60566 5.43602 3.40858C4.23268 4.21151 3.29412 5.35286 2.73874 6.68862C2.18337 8.02438 2.03607 9.49471 2.31542 10.9141C2.59478 12.3335 3.28827 13.6383 4.30841 14.664C4.45091 13.8937 4.73195 13.1678 5.29483 12.5835C6.13795 11.7095 7.48458 11.2812 9.50016 11.2812C11.5157 11.2812 12.8624 11.7095 13.7047 12.5835C14.2684 13.1678 14.5486 13.8937 14.6919 14.6648C15.7123 13.6392 16.4061 12.3343 16.6856 10.9147C16.9651 9.49521 16.8178 8.0247 16.2624 6.68877C15.707 5.35285 14.7683 4.21138 13.5648 3.40841C12.3613 2.60545 10.9469 2.17697 9.50016 2.17706ZM13.6121 15.5602C13.5313 14.6007 13.3231 13.8977 12.8505 13.4076C12.3359 12.8749 11.3835 12.4687 9.50016 12.4687C7.61679 12.4687 6.66441 12.8749 6.14983 13.4076C5.6772 13.8985 5.469 14.6007 5.38825 15.561C6.60075 16.3857 8.03379 16.8255 9.50016 16.8229C10.9666 16.8252 12.3996 16.3851 13.6121 15.5602Z" fill="#676862"/>
</g>
<defs>
<clipPath id="clip0_32_3046">
<rect width="19" height="19" fill="white"/>
</clipPath>
</defs>
</svg>
