<svg width="19" height="19" viewBox="0 0 22 22" fill="none" xmlns="http://www.w3.org/2000/svg">
<path d="M15.9848 20.1089H6.01518C5.40739 20.1089 4.8245 19.8675 4.39472 19.4377C3.96495 19.008 3.72351 18.4251 3.72351 17.8173V17.0592C3.72351 13.4209 6.98776 10.4592 11 10.4592C15.0123 10.4592 18.2765 13.4191 18.2765 17.0592V17.8173C18.2765 18.4251 18.0351 19.008 17.6053 19.4377C17.1755 19.8675 16.5926 20.1089 15.9848 20.1089ZM11 11.3777C7.49284 11.3777 4.64018 13.926 4.64018 17.061V17.8191C4.64018 18.1838 4.78504 18.5335 5.04291 18.7914C5.30077 19.0492 5.6505 19.1941 6.01518 19.1941H15.9848C16.3495 19.1941 16.6993 19.0492 16.9571 18.7914C17.215 18.5335 17.3598 18.1838 17.3598 17.8191V17.0592C17.3598 13.926 14.5072 11.3777 11 11.3777ZM11 9.08511C10.2886 9.0853 9.59302 8.87449 9.00137 8.47936C8.40973 8.08422 7.94855 7.52251 7.67616 6.86526C7.40377 6.20801 7.33241 5.48475 7.4711 4.78694C7.60979 4.08913 7.95229 3.44812 8.45531 2.94498C8.95832 2.44183 9.59924 2.09916 10.297 1.9603C10.9948 1.82143 11.7181 1.89261 12.3754 2.16483C13.0327 2.43705 13.5945 2.89809 13.9898 3.48963C14.3851 4.08118 14.5961 4.77666 14.5961 5.48811C14.5954 6.44172 14.2163 7.35607 13.5421 8.03045C12.8679 8.70483 11.9536 9.08414 11 9.08511ZM11 2.8087C10.4698 2.80852 9.95147 2.96558 9.51055 3.26003C9.06963 3.55448 8.72595 3.97308 8.52296 4.46289C8.31998 4.95269 8.26683 5.49169 8.37022 6.01171C8.47361 6.53173 8.72891 7.00941 9.10381 7.38431C9.47872 7.75922 9.95639 8.01451 10.4764 8.11791C10.9964 8.2213 11.5354 8.16814 12.0252 7.96516C12.515 7.76218 12.9336 7.41849 13.2281 6.97757C13.5225 6.53665 13.6796 6.01831 13.6794 5.48811C13.6787 4.77771 13.3962 4.09662 12.8938 3.59429C12.3915 3.09195 11.7104 2.80943 11 2.8087Z" fill="#505050"/>
</svg>
