<svg width="19" height="19" viewBox="0 0 19 19" fill="none" xmlns="http://www.w3.org/2000/svg">
<path d="M2.96255 16.2727C3.91255 17.4167 5.67955 17.4167 9.21434 17.4167H9.78593C13.3207 17.4167 15.0885 17.4167 16.0385 16.2727M2.96255 16.2727C2.01255 15.128 2.33872 13.391 2.99026 9.91562C3.45339 7.44562 3.68455 6.20983 4.5641 5.47992M16.0385 16.2727C16.9885 15.128 16.6623 13.391 16.0108 9.91562C15.5477 7.44562 15.3157 6.20983 14.4362 5.47992M14.4362 5.47992C13.5574 4.75 12.2995 4.75 9.78593 4.75H9.21434C6.7008 4.75 5.44364 4.75 4.5641 5.47992" stroke="#676862" stroke-width="0.9375"/>
<path d="M7.125 4.74998V3.95831C7.125 3.32842 7.37522 2.72433 7.82062 2.27893C8.26602 1.83354 8.87011 1.58331 9.5 1.58331C10.1299 1.58331 10.734 1.83354 11.1794 2.27893C11.6248 2.72433 11.875 3.32842 11.875 3.95831V4.74998" stroke="#676862" stroke-width="0.9375" stroke-linecap="round"/>
</svg>
