<svg width="11" height="11" viewBox="0 0 11 11" fill="none" xmlns="http://www.w3.org/2000/svg">
<path d="M5.17521 8.83722L9.18138 4.83105C8.50736 4.54964 7.89523 4.13849 7.3798 3.62097C6.86204 3.10542 6.45069 2.4931 6.16917 1.81884L2.16301 5.82501C1.85046 6.13755 1.69392 6.2941 1.55959 6.46635C1.40094 6.66962 1.2649 6.88957 1.15388 7.1223C1.06017 7.31947 0.990297 7.52964 0.850547 7.94889L0.112797 10.1605C0.078842 10.2618 0.0738042 10.3705 0.09825 10.4745C0.122696 10.5784 0.175656 10.6735 0.251177 10.749C0.326699 10.8246 0.421788 10.8775 0.525757 10.902C0.629725 10.9264 0.738451 10.9214 0.839714 10.8874L3.05134 10.1497C3.47113 10.0099 3.68076 9.94005 3.87792 9.84635C4.11084 9.7353 4.33076 9.59935 4.53388 9.44064C4.70613 9.3063 4.86267 9.14976 5.17521 8.83722ZM10.2929 3.71955C10.6923 3.32011 10.9167 2.77835 10.9167 2.21345C10.9167 1.64855 10.6923 1.10679 10.2929 0.707345C9.89344 0.307901 9.35168 0.0834961 8.78678 0.0834961C8.22188 0.0834961 7.68012 0.307901 7.28067 0.707345L6.80021 1.1878L6.8208 1.24793C7.05757 1.9254 7.44502 2.54029 7.95396 3.04626C8.47506 3.57043 9.11148 3.96553 9.81242 4.20001L10.2929 3.71955Z" fill="#4C4A4A"/>
</svg>
