<svg width="19" height="19" viewBox="0 0 19 19" fill="none" xmlns="http://www.w3.org/2000/svg">
<path fill-rule="evenodd" clip-rule="evenodd" d="M4.4525 3.50235C3.13912 4.10243 2.17725 5.5306 2.17725 7.23347C2.17725 8.97276 2.88975 10.3138 3.90941 11.4633C4.75095 12.4102 5.76904 13.1955 6.76179 13.9603C6.9977 14.1423 7.23204 14.3236 7.46241 14.5049C7.87883 14.8335 8.25012 15.1208 8.60875 15.3306C8.96658 15.5396 9.25475 15.6354 9.50016 15.6354C9.74558 15.6354 10.0337 15.5404 10.3916 15.3306C10.7502 15.1208 11.1215 14.8335 11.5379 14.5049C11.7675 14.3228 12.0026 14.1423 12.2385 13.9603C13.2313 13.1955 14.2494 12.4102 15.0909 11.4633C16.1114 10.3138 16.8231 8.97276 16.8231 7.23347C16.8231 5.53139 15.8612 4.10243 14.5478 3.50235C13.2717 2.91889 11.5569 3.07326 9.92766 4.76664C9.87228 4.8241 9.80587 4.86981 9.73242 4.90103C9.65897 4.93225 9.57998 4.94834 9.50016 4.94834C9.42035 4.94834 9.34136 4.93225 9.26791 4.90103C9.19445 4.86981 9.12805 4.8241 9.07266 4.76664C7.44341 3.07326 5.72866 2.91889 4.4525 3.50235ZM9.50016 3.53085C7.66983 1.8921 5.6202 1.66251 3.9585 2.42172C2.20575 3.22526 0.989746 5.08726 0.989746 7.23426C0.989746 9.34406 1.8685 10.9543 3.02195 12.2526C3.94504 13.2921 5.07475 14.1621 6.07304 14.9301C6.29945 15.1042 6.51875 15.2736 6.72695 15.4383C7.13308 15.7581 7.5685 16.0986 8.00945 16.3566C8.45041 16.6139 8.95391 16.8237 9.50016 16.8237C10.0464 16.8237 10.5499 16.6139 10.9909 16.3566C11.4326 16.0986 11.8672 15.7581 12.2734 15.4383C12.4902 15.2674 12.7082 15.098 12.9273 14.9301C13.9248 14.1621 15.0553 13.2913 15.9784 12.2526C17.1318 10.9543 18.0106 9.34406 18.0106 7.23426C18.0106 5.08726 16.7954 3.22526 15.0418 2.42331C13.3801 1.66331 11.3305 1.89289 9.50016 3.53085Z" fill="#676862"/>
</svg>
