<svg width="144" height="144" viewBox="0 0 144 144" fill="none" xmlns="http://www.w3.org/2000/svg">
<circle cx="72" cy="72" r="72" fill="#2C2C29"/>
<path d="M97.2741 42.776C96.1071 42.1266 94.8235 41.7137 93.4968 41.5607C92.17 41.4078 90.8262 41.5179 89.542 41.8847C88.2579 42.2516 87.0586 42.8679 86.0129 43.6986C84.9671 44.5293 84.0953 45.5579 83.4474 46.7258L64.573 80.6926L53.7709 69.8905C52.8331 68.9195 51.7113 68.145 50.4709 67.6122C49.2305 67.0793 47.8964 66.7989 46.5465 66.7871C45.1966 66.7754 43.8578 67.0327 42.6084 67.5438C41.359 68.055 40.2238 68.8099 39.2693 69.7645C38.3147 70.7191 37.5598 71.8542 37.0486 73.1037C36.5374 74.3531 36.2802 75.6918 36.2919 77.0418C36.3036 78.3917 36.5841 79.7258 37.1169 80.9661C37.6497 82.2065 38.4242 83.3283 39.3953 84.2662L59.7286 104.6C61.6501 106.526 64.2426 107.583 66.9164 107.583L68.3245 107.482C69.8828 107.264 71.3692 106.687 72.6668 105.797C73.9644 104.907 75.0376 103.728 75.8021 102.353L101.219 56.6027C101.868 55.4358 102.28 54.1526 102.433 52.8262C102.586 51.4998 102.476 50.1563 102.11 48.8724C101.744 47.5884 101.128 46.3892 100.298 45.3432C99.4687 44.2972 98.441 43.4249 97.2741 42.776Z" fill="white"/>
</svg>
